<svg width="21.775" height="20.762" xmlns="http://www.w3.org/2000/svg">

 <g>
  <title>background</title>
  <rect fill="none" id="canvas_background" height="602" width="802" y="-1" x="-1"/>
 </g>
 <g>
  <title>Layer 1</title>
  <path stroke="#ff0000" id="svg_1" d="m14.152,11.931l3.009,-2.931c0.397,-0.388 0.308,-0.758 -0.148,-0.9c-0.008,-0.003 -0.012,-0.011 -0.02,-0.014c-0.068,-0.03 -0.174,-0.07 -0.328,-0.092l-4.053,-0.589c-0.279,-0.04 -0.589,-0.184 -0.86,-0.379c-0.142,-0.104 -0.272,-0.221 -0.386,-0.345c-0.105,-0.117 -0.194,-0.241 -0.255,-0.365l-1.813,-3.676c-0.02,-0.04 -0.044,-0.07 -0.066,-0.107l-0.019,-0.038c-0.009,-0.018 -0.021,-0.023 -0.03,-0.04c-0.012,-0.015 -0.023,-0.032 -0.035,-0.046c-0.129,-0.208 -0.28,-0.333 -0.438,-0.333c-0.15,0 -0.294,0.119 -0.419,0.309c-0.01,0.011 -0.018,0.025 -0.027,0.036c-0.017,0.029 -0.039,0.041 -0.055,0.074l-0.026,0.052c-0.02,0.033 -0.041,0.053 -0.06,0.093l-1.814,3.674c-0.062,0.126 -0.152,0.252 -0.259,0.371c-0.112,0.121 -0.239,0.236 -0.376,0.336c-0.274,0.199 -0.586,0.344 -0.867,0.385l-4.054,0.588c-0.055,0.008 -0.119,0.033 -0.18,0.051l0,0c0,0 0,0 -0.001,0c-0.05,0.015 -0.095,0.025 -0.142,0.048c-0.475,0.138 -0.572,0.513 -0.168,0.907l3.007,2.931c0.431,0.422 0.699,1.233 0.622,1.842l-0.687,4.005c-0.004,0.025 0,0.045 -0.002,0.068l-0.022,0.133c-0.077,0.446 0.094,0.708 0.404,0.708c0.118,0 0.255,-0.038 0.407,-0.117l3.717,-1.955c0.276,-0.145 0.641,-0.216 1.003,-0.216c0.364,0 0.729,0.072 1.004,0.216l3.718,1.955c0.149,0.079 0.289,0.117 0.406,0.117c0.312,0 0.481,-0.262 0.405,-0.708l-0.03,-0.174c-0.001,-0.012 0.002,-0.019 0,-0.03l-0.682,-3.962c-0.093,-0.613 0.181,-1.452 0.62,-1.882zm-1.619,1.975l0.574,3.35l-3.003,-1.581c-0.386,-0.203 -0.881,-0.315 -1.395,-0.315c-0.511,0 -1.005,0.112 -1.393,0.315l-3.007,1.57l0.572,-3.34c0.153,-0.884 -0.217,-2.023 -0.861,-2.65l-2.424,-2.373l3.354,-0.487c0.887,-0.128 1.857,-0.833 2.255,-1.639l1.495,-3.067l1.513,3.068c0.397,0.806 1.367,1.51 2.255,1.637l3.355,0.496l-2.432,2.367c-0.638,0.627 -1.007,1.766 -0.858,2.649z"/>
  <path d="m0.55937,8.58266c0.03125,0 0.0625,0 0.0625,0.03125c0,0.03125 -0.01294,0.08081 0.03125,0.125c0.0221,0.0221 0.00915,0.07165 0.03125,0.09375c0.0221,0.0221 0.0404,0.0404 0.0625,0.0625c0.0221,0.0221 0,0.09375 0.03125,0.09375c0.0625,0 0,-0.125 -0.0625,-0.21875c-0.0625,-0.09375 -0.15368,-0.16834 -0.1875,-0.25c-0.02392,-0.05774 -0.01691,-0.10333 0,-0.0625c0.01196,0.02887 0.01929,0.06488 0.03125,0.09375c0.01691,0.04083 0.02164,0.06831 0.0625,0.125c0.02584,0.03585 0.06331,0.04126 0.125,0.03125c0.09755,-0.01583 0.17341,-0.09235 0.28125,-0.125c0.02991,-0.00906 0.0038,-0.01542 -0.09375,-0.03125c-0.06169,-0.01001 -0.21969,-0.01527 -0.34375,0c-0.12788,0.01574 -0.15625,0.03125 -0.125,0.03125c0.0625,0 0.12622,-0.02463 0.375,0c0.15857,0.0157 0.25,0.03125 0.25,0.0625c0,0.03125 0.01643,0.06717 0,0.09375c-0.03674,0.05944 -0.09375,0.09375 -0.15625,0.15625c-0.03125,0.03125 -0.04559,0.05292 -0.0625,0.09375c-0.01196,0.02887 -0.06411,0.10308 -0.03125,0.15625c0.03674,0.05944 0.08778,0.1038 0.1875,0.15625c0.14894,0.07835 0.27378,0.10675 0.375,0.15625c0.08877,0.04342 0.19719,0.07305 0.28125,0.125c0.07519,0.04647 0.08417,0.11066 0.125,0.09375c0.02887,-0.01196 -0.05616,-0.03927 -0.09375,-0.0625c-0.16812,-0.10391 -0.39725,-0.18693 -0.5625,-0.21875c-0.06137,-0.01182 -0.04082,-0.07092 0.15625,0.0625c0.0366,0.02478 0.12976,0.06983 0.1875,0.09375c0.08166,0.03382 0.08414,0.09956 0.125,0.15625c0.05168,0.0717 0.09214,0.13433 0.125,0.1875c0.03674,0.05944 0.13433,0.05691 0.1875,0.15625c0.01475,0.02755 0.04559,0.02167 0.0625,0.0625c0.01196,0.02887 0.00915,0.0404 0.03125,0.0625c0.0221,0.0221 0.03363,0.01929 0.0625,0.03125c0.04083,0.01691 0.08106,0.10978 0.15625,0.15625c0.08406,0.05195 0.21618,0.10584 0.25,0.1875c0.01196,0.02887 0.07684,0.05292 0.09375,0.09375c0.01196,0.02887 0.03125,0.03125 0.03125,0.0625c0,0.03125 0.03125,0.03125 0.0625,0.09375c0.03125,0.0625 0.03858,0.09851 0.0625,0.15625c0.01691,0.04083 0.07684,0.02167 0.09375,0.0625c0.01196,0.02887 0.03592,0.04607 0.0625,0.0625c0.05944,0.03674 0.07684,0.08417 0.09375,0.125c0.01196,0.02887 0.06911,0.02232 0.15625,0.09375c0.03418,0.02802 0.08417,0.07684 0.125,0.09375c0.05774,0.02392 0.11951,0.00306 0.15625,0.0625c0.01643,0.02658 0.03125,0.03125 0.0625,0.0625c0.03125,0.03125 0.08915,0.03666 0.125,0.0625c0.05669,0.04086 0.06488,0.05054 0.09375,0.0625c0.04083,0.01691 0.09613,0.08179 0.125,0.09375c0.04083,0.01691 0.03363,0.05054 0.0625,0.0625c0.04083,0.01691 0.03125,0.0625 0.03125,0.09375c0,0.03125 0.01434,0.05292 0.03125,0.09375c0.01196,0.02887 0.01434,0.05292 0.03125,0.09375c0.02392,0.05774 -0.00657,0.12745 0.03125,0.21875c0.02674,0.06456 0.0625,0.15625 0.0625,0.21875c0,0.0625 0.00915,0.1029 0.03125,0.125c0.0221,0.0221 -0.0221,0.07165 0,0.09375c0.0221,0.0221 0.02407,0.03209 0.03125,0.0625c0.01605,0.06801 0.03125,0.09375 0.03125,0.125c0,0.03125 0.01929,0.06488 0.03125,0.09375c0.01691,0.04083 0.03125,0.09375 0.03125,0.125c0,0.0625 0.01689,0.09542 0.03125,0.15625c0.01605,0.06801 0.03125,0.15625 0.03125,0.25c0,0.09375 0,0.15625 0,0.21875c0,0.0625 0,0.125 0,0.1875c0,0.03125 0,0.0625 0,0.09375l0,-0.03125" id="svg_2" fill-opacity="null" stroke-width="null" stroke="#ff0000" fill="none"/>
  <path transform="rotate(-0.6906400322914124 4.363070964813838,17.785579681396463) " d="m3.62187,18.17641c0.03125,-0.03125 0.08081,-0.01831 0.125,-0.0625c0.04419,-0.04419 0.09005,-0.0997 0.1875,-0.15625c0.06044,-0.03507 0.13709,-0.12243 0.21875,-0.15625c0.05774,-0.02392 0.09375,-0.0625 0.125,-0.0625c0.03125,0 0.06488,-0.01929 0.09375,-0.03125c0.04083,-0.01691 0.08417,-0.07684 0.125,-0.09375c0.02887,-0.01196 0.0404,-0.0404 0.0625,-0.0625c0.0221,-0.0221 0.05054,-0.03363 0.0625,-0.0625c0.01691,-0.04083 0.0625,-0.03125 0.09375,-0.03125c0.03125,0 0.09459,0.00718 0.125,0c0.06801,-0.01605 0.15245,-0.04667 0.25,-0.0625c0.03085,-0.005 0.0046,0.03666 -0.03125,0.0625c-0.05669,0.04086 -0.18911,0.07373 -0.3125,0.09375c-0.09755,0.01583 -0.1875,0.0625 -0.21875,0.09375l-0.03125,0.03125" id="svg_3" fill-opacity="null" stroke-width="null" stroke="#ff0000" fill="none"/>
  <path d="m5.37187,17.11391c0,0.03125 0,0.0625 0.03125,0.0625c0.03125,0 0.09375,0.03125 0.15625,0.03125c0.0625,0 0.09375,0 0.125,0c0.03125,0 0.0625,0 0.0625,-0.03125c0,-0.03125 0.0404,-0.0404 0.0625,-0.0625c0.0221,-0.0221 0.03125,-0.0625 0.03125,-0.09375c0,-0.03125 0,-0.0625 -0.03125,-0.0625c-0.0625,0 -0.09956,0.02164 -0.15625,0.0625c-0.03585,0.02584 -0.09375,0.09375 -0.0625,0.09375c0.03125,0 -0.01196,-0.06488 0,-0.09375c0.01691,-0.04083 0.0404,-0.0404 0.0625,-0.0625c0.04419,-0.04419 0.09375,-0.03125 0.125,-0.0625c0.03125,-0.03125 0.07165,-0.00915 0.09375,-0.03125c0.0221,-0.0221 0.03125,-0.03125 0.0625,-0.03125c0.03125,0 0.0625,-0.03125 0.09375,-0.03125c0.03125,0 0.07165,0.0221 0.09375,0c0.0221,-0.0221 0.02167,-0.04559 0.0625,-0.0625c0.02887,-0.01196 0.0404,-0.00915 0.0625,-0.03125c0.0221,-0.0221 0.0404,-0.00915 0.0625,-0.03125c0.0221,-0.0221 0.03125,-0.03125 0.0625,-0.03125c0.03125,0 0.03125,-0.03125 0.0625,-0.03125c0.03125,0 0.0404,-0.00915 0.0625,-0.03125c0.0221,-0.0221 0.03125,-0.03125 0.0625,-0.03125c0.03125,0 0.0579,-0.03666 0.09375,-0.0625c0.05669,-0.04086 0.15625,-0.09375 0.1875,-0.125c0.03125,-0.03125 0.0404,-0.0404 0.0625,-0.0625c0.0221,-0.0221 0.02167,-0.07684 0.0625,-0.09375c0.02887,-0.01196 0.07165,-0.00915 0.09375,-0.03125c0.0221,-0.0221 0.00915,-0.0404 0.03125,-0.0625c0.0221,-0.0221 0.0625,0 0.09375,0c0.0625,0 0.09375,0 0.125,0c0.03125,0 0.0625,0 0.09375,0c0.09375,0 0.125,0 0.15625,0c0.03125,0 0.03363,-0.01929 0.0625,-0.03125c0.04083,-0.01691 0.0625,-0.03125 0.09375,-0.0625c0.03125,-0.03125 0.03125,-0.0625 0.0625,-0.0625c0.03125,0 0.07165,0.0221 0.09375,0c0.0221,-0.0221 0.03125,-0.03125 0.0625,-0.03125c0.03125,0 0.0625,0 0.09375,0c0.03125,0 0.0625,-0.03125 0.09375,-0.03125c0.03125,0 0.0625,0 0.09375,0c0.03125,0 0.0625,0 0.09375,0c0.0625,0 0.09375,0 0.1875,0c0.03125,0 0.06334,0.00718 0.09375,0c0.06801,-0.01605 0.09375,-0.03125 0.125,-0.03125c0.03125,0 0.09375,0 0.125,0c0.03125,0 0.0625,0 0.09375,0c0.03125,0 0.0625,0 0.09375,0c0.03125,0 0.09375,0 0.125,0c0.03125,0 0.09375,0 0.125,0c0.03125,0 0.12768,-0.01811 0.1875,0c0.10784,0.03265 0.15625,0.0625 0.1875,0.0625c0.0625,0 0.09375,0.03125 0.125,0.03125c0.03125,0 0.08081,-0.04419 0.125,0c0.0221,0.0221 0.03431,0.05701 0.09375,0.09375c0.02658,0.01643 0.07165,-0.0221 0.09375,0c0.0221,0.0221 0.02167,0.04559 0.0625,0.0625c0.02887,0.01196 0.04607,0.03592 0.0625,0.0625c0.03674,0.05944 0.07732,0.03592 0.09375,0.0625c0.03674,0.05944 0.09613,0.05054 0.125,0.0625c0.04083,0.01691 0.09613,0.05054 0.125,0.0625c0.08166,0.03382 0.09851,0.06983 0.15625,0.09375c0.04083,0.01691 0.09613,0.08179 0.125,0.09375c0.08166,0.03382 0.1204,0.06791 0.15625,0.09375c0.05669,0.04086 0.09842,0.04607 0.125,0.0625c0.05944,0.03674 0.09375,0.09375 0.125,0.125c0.03125,0.03125 0.0625,0.03125 0.09375,0.0625c0.0625,0.0625 0.11304,0.09613 0.125,0.125c0.01691,0.04083 0.06556,0.05701 0.125,0.09375c0.02658,0.01643 0.08915,0.03666 0.125,0.0625c0.05669,0.04086 0.08106,0.04728 0.15625,0.09375c0.08406,0.05195 0.125,0.03125 0.1875,0.0625c0.0625,0.03125 0.13709,0.09118 0.21875,0.125c0.05774,0.02392 0.1029,0.0404 0.125,0.0625c0.0221,0.0221 0.0404,0.00915 0.0625,0.03125c0.0221,0.0221 0.0404,0.00915 0.0625,0.03125c0.0221,0.0221 0.03601,0.00733 0.09375,0.03125c0.04083,0.01691 0.07165,0.07165 0.09375,0.09375c0.0221,0.0221 0.05957,0.00323 0.09375,0.03125c0.08714,0.07143 0.15419,0.06701 0.21875,0.09375c0.0913,0.03782 0.1875,0.0625 0.28125,0.09375c0.09375,0.03125 0.18199,0.0777 0.25,0.09375c0.06083,0.01436 0.09375,0 0.09375,-0.03125c0,-0.03125 0,-0.09375 0,-0.125c0,-0.03125 0,-0.0625 0,-0.125c0,-0.03125 0,-0.09375 0,-0.1875c0,-0.03125 0,-0.09375 0,-0.125c0,-0.03125 0,-0.0625 0,-0.09375c0,-0.03125 -0.03125,-0.0625 -0.03125,-0.125c0,-0.03125 0,-0.0625 0,-0.09375c0,-0.0625 0,-0.09375 0,-0.15625c0,-0.03125 0,-0.0625 0,-0.09375c0,-0.03125 -0.01434,-0.05292 -0.03125,-0.09375c-0.01196,-0.02887 0,-0.0625 0,-0.09375c0,-0.03125 -0.0152,-0.05699 -0.03125,-0.125c-0.00718,-0.03041 0,-0.09375 0,-0.15625c0,-0.03125 -0.04559,-0.08417 -0.0625,-0.125c-0.02392,-0.05774 -0.03125,-0.09375 -0.03125,-0.125c0,-0.03125 -0.01434,-0.05292 -0.03125,-0.09375c-0.01196,-0.02887 0,-0.0625 0,-0.09375c0,-0.03125 0,-0.0625 0,-0.125c0,-0.03125 0,-0.09375 0,-0.125c0,-0.0625 0,-0.09375 0,-0.15625c0,-0.03125 0,-0.09375 0,-0.125c0,-0.0625 0,-0.09375 0,-0.1875c0,-0.0625 -0.02124,-0.15706 -0.03125,-0.21875c-0.01583,-0.09754 -0.04559,-0.17792 -0.0625,-0.21875c-0.01196,-0.02887 -0.01434,-0.05292 -0.03125,-0.09375c-0.01196,-0.02887 -0.00915,-0.0404 -0.03125,-0.0625c-0.0221,-0.0221 -0.02407,-0.06334 -0.03125,-0.09375c-0.01605,-0.06801 -0.03125,-0.09375 -0.03125,-0.125c0,-0.03125 -0.03125,-0.09375 -0.03125,-0.125c0,-0.03125 -0.01434,-0.08417 -0.03125,-0.125c-0.02392,-0.05774 -0.03125,-0.125 -0.03125,-0.15625c0,-0.0625 0,-0.125 0,-0.1875c0,-0.03125 0.03125,-0.125 0.03125,-0.15625c0,-0.0625 0.03125,-0.125 0.03125,-0.1875c0,-0.03125 0,-0.0625 0,-0.09375c0,-0.03125 -0.00915,-0.07165 -0.03125,-0.09375c-0.0221,-0.0221 -0.00915,-0.0404 -0.03125,-0.0625c-0.0221,-0.0221 -0.03125,-0.03125 -0.03125,-0.0625c0,-0.03125 -0.03125,-0.03125 -0.03125,0c0,0.03125 0,0.125 0,0.1875c0,0.0625 0.03125,0.15625 0.03125,0.21875c0,0.0625 0,0.125 0,0.1875c0,0.03125 0,0.09375 0.03125,0.09375c0.03125,0 -0.00451,-0.06044 -0.03125,-0.125c-0.03782,-0.0913 -0.0178,-0.19166 -0.0625,-0.3125c-0.02424,-0.06554 -0.03125,-0.125 -0.03125,-0.15625c0,-0.0625 0,-0.09375 0,-0.125c0,-0.03125 0.00733,-0.03601 0.03125,-0.09375c0.01691,-0.04083 0.03125,-0.09375 0.0625,-0.125c0.03125,-0.03125 0.04667,-0.05871 0.0625,-0.15625c0.01001,-0.06169 0.02407,-0.12584 0.03125,-0.15625c0.01605,-0.06801 0.03125,-0.125 0.03125,-0.15625c0,-0.03125 0.00733,-0.09851 0.03125,-0.15625c0.01691,-0.04083 0.0625,-0.09375 0.0625,-0.125c0,-0.03125 0.04559,-0.05292 0.0625,-0.09375c0.01196,-0.02887 0.03331,-0.08993 0.09375,-0.125c0.09745,-0.05655 0.1504,-0.13146 0.21875,-0.1875c0.08714,-0.07143 0.1875,-0.1875 0.25,-0.25c0.03125,-0.03125 0.10809,-0.08417 0.125,-0.125c0.01196,-0.02887 0.0404,-0.07165 0.0625,-0.09375c0.0221,-0.0221 0.00915,-0.0404 0.03125,-0.0625c0.0221,-0.0221 0.00915,-0.07165 0.03125,-0.09375c0.0221,-0.0221 0,0 -0.03125,0.03125c-0.03125,0.03125 -0.03363,0.05054 -0.0625,0.0625c-0.04083,0.01691 -0.05292,0.07684 -0.09375,0.09375c-0.02887,0.01196 -0.00915,0.0404 -0.03125,0.0625c-0.0221,0.0221 -0.0625,0.03125 -0.09375,0.0625c-0.03125,0.03125 -0.05054,0.06488 -0.0625,0.09375c-0.01691,0.04083 -0.0625,0.0625 -0.09375,0.09375c-0.03125,0.03125 -0.06717,0.07732 -0.09375,0.09375c-0.05944,0.03674 -0.05054,0.06488 -0.0625,0.09375c-0.01691,0.04083 -0.03125,0.0625 -0.0625,0.0625c-0.03125,0 -0.02887,0.04321 0,0.03125c0.04083,-0.01691 0.0625,-0.0625 0.125,-0.125c0.03125,-0.03125 0.09375,-0.09375 0.15625,-0.15625c0.03125,-0.03125 0.06791,-0.0579 0.09375,-0.09375c0.04086,-0.05669 0.07684,-0.08417 0.09375,-0.125c0.01196,-0.02887 0.01929,-0.03363 0.03125,-0.0625c0.01691,-0.04083 0.0625,-0.0625 0.0625,-0.09375c0,-0.03125 -0.00225,-0.05034 0.0625,-0.125c0.04578,-0.05279 0.13146,-0.0879 0.1875,-0.15625c0.07143,-0.08714 0.09375,-0.125 0.15625,-0.1875c0.03125,-0.03125 0.06983,-0.06726 0.09375,-0.125c0.01691,-0.04083 0.05054,-0.06488 0.0625,-0.09375c0.01691,-0.04083 0.0404,-0.0404 0.0625,-0.0625c0.0221,-0.0221 0.03363,-0.01929 0.0625,-0.03125c0.04083,-0.01691 0.04607,-0.03592 0.0625,-0.0625c0.03674,-0.05944 0.07219,-0.0418 0.15625,-0.09375c0.03759,-0.02323 0.09581,-0.08993 0.15625,-0.125c0.09745,-0.05655 0.15368,-0.04334 0.1875,-0.125c0.01196,-0.02887 0.0404,-0.0404 0.0625,-0.0625c0.0221,-0.0221 0.07165,-0.00915 0.09375,-0.03125c0.0221,-0.0221 0.00915,-0.0404 0.03125,-0.0625c0.0221,-0.0221 0.0404,-0.00915 0.0625,-0.03125c0.0221,-0.0221 0.00915,-0.0404 0.03125,-0.0625c0.0221,-0.0221 0.03592,-0.01482 0.0625,-0.03125c0.05944,-0.03674 0.03376,-0.10551 0.15625,-0.15625c0.02887,-0.01196 0.07219,-0.07305 0.15625,-0.125c0.03759,-0.02323 0.08168,-0.10303 0.15625,-0.1875c0.04625,-0.05239 0.08414,-0.09956 0.125,-0.15625c0.02584,-0.03585 0.03601,-0.06983 0.09375,-0.09375c0.04083,-0.01691 0.03592,-0.07732 0.0625,-0.09375c0.05944,-0.03674 0.0625,-0.09375 0.0625,-0.125c0,-0.03125 0.04559,-0.02167 0.0625,-0.0625c0.01196,-0.02887 -0.00961,-0.06831 0.03125,-0.125c0.02584,-0.03585 0.05054,-0.09613 0.0625,-0.125c0.01691,-0.04083 0,-0.0625 -0.03125,-0.0625c-0.03125,0 -0.0404,-0.00915 -0.0625,-0.03125c-0.04419,-0.04419 -0.0625,-0.03125 -0.15625,-0.0625c-0.09375,-0.03125 -0.11949,-0.04644 -0.1875,-0.0625c-0.06083,-0.01436 -0.15625,0 -0.1875,0c-0.03125,0 -0.12579,0.00371 -0.28125,-0.03125c-0.12571,-0.02827 -0.25,-0.0625 -0.34375,-0.0625c-0.0625,0 -0.11542,-0.01434 -0.15625,-0.03125c-0.05774,-0.02392 -0.07165,-0.00915 -0.09375,-0.03125c-0.0221,-0.0221 -0.0625,0 -0.09375,0c-0.03125,0 -0.05871,-0.01542 -0.15625,-0.03125c-0.06169,-0.01001 -0.1875,-0.03125 -0.25,-0.03125c-0.03125,0 -0.0625,-0.03125 -0.09375,-0.03125c-0.03125,0 -0.06296,0.00924 -0.15625,0c-0.15857,-0.0157 -0.24449,-0.0777 -0.3125,-0.09375c-0.18248,-0.04308 -0.25081,-0.02124 -0.3125,-0.03125c-0.09754,-0.01583 -0.18462,-0.04676 -0.3125,-0.0625c-0.12406,-0.01527 -0.3125,-0.0625 -0.46875,-0.0625c-0.09375,0 -0.15246,-0.04667 -0.25,-0.0625c-0.03085,-0.00501 -0.0404,-0.00915 -0.0625,-0.03125c-0.04419,-0.04419 -0.09169,-0.00451 -0.15625,-0.03125c-0.0913,-0.03782 -0.12768,-0.04439 -0.1875,-0.0625c-0.10784,-0.03265 -0.14878,-0.0755 -0.25,-0.125c-0.08877,-0.04342 -0.21875,-0.09375 -0.34375,-0.15625c-0.0625,-0.03125 -0.14523,-0.09289 -0.28125,-0.125c-0.12166,-0.02872 -0.19959,-0.05993 -0.28125,-0.09375c-0.02887,-0.01196 -0.07165,0.0221 -0.09375,0c-0.0221,-0.0221 -0.03125,-0.0625 -0.0625,-0.0625c-0.03125,0 -0.03363,-0.01929 -0.0625,-0.03125c-0.04083,-0.01691 -0.06488,-0.05054 -0.09375,-0.0625c-0.04083,-0.01691 -0.08081,-0.04956 -0.125,-0.09375c-0.0221,-0.0221 -0.05054,-0.06488 -0.0625,-0.09375c-0.01691,-0.04083 -0.07165,-0.07165 -0.09375,-0.09375c-0.0221,-0.0221 -0.02167,-0.04559 -0.0625,-0.0625c-0.02887,-0.01196 -0.03125,-0.03125 -0.03125,-0.0625c0,-0.03125 -0.00915,-0.0404 -0.03125,-0.0625c-0.0221,-0.0221 0,-0.0625 0,-0.09375c0,-0.03125 0.0221,-0.07165 0,-0.09375c-0.0221,-0.0221 -0.03125,-0.0625 -0.03125,-0.09375c0,-0.03125 -0.01196,-0.06012 0,-0.03125c0.01691,0.04083 0.08011,0.16695 0.15625,0.25c0.13522,0.14749 0.25,0.28125 0.34375,0.375c0.0625,0.0625 0.125,0.125 0.15625,0.15625c0.0625,0.0625 0.09956,0.08414 0.15625,0.125c0.03585,0.02584 0.0579,0.06791 0.09375,0.09375c0.05669,0.04086 0.16206,0.08414 0.21875,0.125c0.03585,0.02584 0.03041,0.00718 0,0c-0.06801,-0.01605 -0.1441,-0.06025 -0.21875,-0.125c-0.05279,-0.04578 -0.06701,-0.06044 -0.09375,-0.125c-0.03782,-0.0913 -0.02964,-0.13433 -0.0625,-0.1875c-0.03674,-0.05944 -0.07564,-0.09643 -0.09375,-0.15625c-0.03265,-0.10784 -0.0779,-0.16356 -0.15625,-0.3125c-0.05245,-0.09972 -0.13146,-0.18165 -0.1875,-0.25c-0.07143,-0.08714 -0.11951,-0.12806 -0.15625,-0.1875c-0.03286,-0.05317 -0.03576,-0.09169 -0.0625,-0.15625c-0.03782,-0.0913 -0.05033,-0.16123 -0.09375,-0.25c-0.0495,-0.10122 -0.11735,-0.19163 -0.1875,-0.3125c-0.05655,-0.09745 -0.10978,-0.14356 -0.15625,-0.21875c-0.05195,-0.08406 -0.05881,-0.15852 -0.15625,-0.3125c-0.06025,-0.09521 -0.13716,-0.23925 -0.21875,-0.34375c-0.11214,-0.14362 -0.15625,-0.21875 -0.21875,-0.3125c-0.0625,-0.09375 -0.138,-0.14878 -0.1875,-0.25c-0.04342,-0.08877 -0.0625,-0.125 -0.09375,-0.1875c-0.03125,-0.0625 -0.02164,-0.09956 -0.0625,-0.15625c-0.02584,-0.03585 -0.0625,-0.0625 -0.0625,-0.125c0,-0.03125 -0.03666,-0.08915 -0.0625,-0.125c-0.04086,-0.05669 -0.0418,-0.13469 -0.09375,-0.21875c-0.02323,-0.03759 -0.0625,-0.09375 -0.09375,-0.09375c-0.0625,0 -0.0962,-0.00657 -0.1875,0.03125c-0.06456,0.02674 -0.1875,0.125 -0.3125,0.21875c-0.125,0.09375 -0.26939,0.23244 -0.4375,0.4375c-0.14287,0.17427 -0.28125,0.3125 -0.375,0.4375c-0.09375,0.125 -0.20151,0.27518 -0.25,0.40625c-0.0447,0.12084 -0.09375,0.25 -0.09375,0.375c0,0.09375 -0.03125,0.15625 -0.03125,0.28125c0,0.0625 -0.00718,0.12584 0,0.15625c0.01605,0.06801 0.03125,0.09375 0.03125,0.125c0,0.03125 -0.00802,0.08741 -0.03125,0.125c-0.05195,0.08406 -0.0755,0.21128 -0.125,0.3125c-0.04342,0.08877 -0.09375,0.25 -0.125,0.34375c-0.03125,0.09375 -0.03125,0.1875 -0.0625,0.25c-0.03125,0.0625 -0.0625,0.09375 -0.0625,0.15625c0,0.03125 -0.03125,0.0625 -0.0625,0.09375c-0.03125,0.03125 -0.02164,0.09956 -0.0625,0.15625c-0.05168,0.0717 -0.10809,0.05292 -0.125,0.09375c-0.01196,0.02887 -0.03125,0.03125 -0.0625,0.0625c-0.03125,0.03125 -0.08179,0.09613 -0.09375,0.125c-0.01691,0.04083 -0.0404,0.0404 -0.0625,0.0625c-0.0221,0.0221 -0.01929,0.03363 -0.03125,0.0625c-0.01691,0.04083 -0.09375,0.09375 -0.125,0.125l0,0.03125l-0.03125,0" id="svg_4" fill-opacity="null" stroke-width="null" stroke="#ff0000" fill="none"/>
  <path d="m5.90312,16.73891c-0.03125,0.03125 -0.04559,0.05292 -0.0625,0.09375c-0.01196,0.02887 -0.03125,0.0625 -0.0625,0.09375c-0.03125,0.03125 -0.08417,0.07684 -0.125,0.09375c-0.02887,0.01196 -0.0404,0.00915 -0.0625,0.03125c-0.0221,0.0221 0,0.0625 0,0.09375c0,0.03125 0.00476,0.08642 0.0625,0.0625c0.12249,-0.05074 0.17481,-0.17228 0.25,-0.21875c0.08406,-0.05195 0.09375,-0.0625 0.125,-0.09375l-0.03125,0" id="svg_5" fill-opacity="null" stroke-width="null" stroke="#ff0000" fill="none"/>
 </g>
</svg>